<svg version="1.1" id="Layer_1" xmlns="http://www.w3.org/2000/svg" xmlns:xlink="http://www.w3.org/1999/xlink" x="0px" y="0px"
	width="100%" viewBox="0 0 1024 1024" enable-background="new 0 0 1024 1024" xml:space="preserve">
	<path fill="#000000" opacity="1.000000" stroke="none"
		d="
M140.693481,540.120605
	C137.239716,513.472351 136.683197,487.128113 138.997452,460.884705
	C142.349228,422.876038 151.361511,386.167938 166.164627,350.833069
	C188.820404,296.753967 222.870697,251.041275 267.035645,212.921371
	C318.806885,168.236252 379.118256,141.215805 446.127441,128.483887
	C475.080048,122.982826 504.258606,120.502075 533.615784,121.938385
	C579.180176,124.167633 623.300598,133.481583 665.599182,150.984741
	C702.861267,166.403793 737.026367,186.899536 767.400696,213.384796
	C821.231140,260.322845 860.218262,317.201691 881.027161,385.936035
	C888.463806,410.500397 893.421387,435.500977 895.540222,461.182617
	C901.218689,530.012146 887.852051,594.978088 857.432861,656.686279
	C855.446960,660.714905 853.520447,664.891724 850.811707,668.420349
	C845.208740,675.719299 843.958618,683.737000 844.066833,692.733948
	C844.252686,708.183655 845.330139,723.692810 842.409790,739.091431
	C835.935120,773.232239 808.087280,796.800171 773.361633,796.895386
	C732.530640,797.007324 691.699036,796.881104 650.867737,796.879089
	C627.712463,796.877930 604.556763,796.996643 581.402283,796.870605
	C577.104797,796.847168 574.445862,797.872498 573.697327,802.537415
	C573.309937,804.951477 572.391846,807.482727 571.030884,809.500549
	C566.811951,815.755737 567.334412,822.093750 569.257690,828.977295
	C573.283447,843.386108 576.900330,857.911804 580.497620,872.435974
	C581.381042,876.002747 583.169861,877.261536 586.780518,877.145569
	C599.597412,876.733887 612.420166,877.898254 625.244873,877.091736
	C628.580017,876.881958 631.909790,877.155273 635.112122,878.273376
	C640.244080,880.065247 643.841370,885.372681 643.155090,890.142334
	C642.420227,895.249573 637.968506,899.132812 632.259583,899.321472
	C627.433350,899.480957 622.597046,899.323059 617.765198,899.323669
	C551.270325,899.331970 484.775421,899.340698 418.280548,899.359253
	C412.959534,899.360718 407.634338,899.586548 402.318542,899.439392
	C395.371460,899.247131 391.004211,894.998291 390.989014,888.762329
	C390.973511,882.400146 395.649109,877.761292 402.642700,877.687866
	C416.807220,877.539062 430.976929,877.432678 445.138245,877.674255
	C450.087952,877.758667 452.754395,876.315552 453.984772,871.249878
	C457.950287,854.923218 462.303711,838.691040 466.453613,822.408630
	C466.947388,820.471436 467.180573,818.407837 466.145935,816.542358
	C463.145416,811.132324 460.833527,805.420227 458.756561,799.617737
	C457.858154,797.107727 455.901215,797.105774 453.906830,797.075378
	C448.241577,796.988892 442.575165,796.941345 436.909210,796.941345
	C377.245453,796.941223 317.577789,797.311707 257.921143,796.663818
	C245.807755,796.532288 235.547043,799.001465 225.480270,805.276367
	C213.898422,812.495605 201.817596,818.912109 189.988068,825.737244
	C184.566574,828.865234 179.103836,829.403931 174.180481,825.227417
	C169.381134,821.156128 169.499771,815.878357 171.244919,810.116455
	C177.033569,791.004578 183.267807,772.017883 187.981186,752.592102
	C188.059738,752.268372 188.221985,751.950867 188.232956,751.626709
	C189.033096,727.997131 189.863846,704.367004 189.153915,680.718994
	C189.076630,678.144165 187.710022,675.973816 186.426895,673.816345
	C161.904419,632.585571 147.302170,587.951843 140.693481,540.120605
M850.887756,617.453003
	C868.716736,572.806030 877.256592,526.609619 875.152771,478.411316
	C873.924866,450.278595 869.220520,422.840698 861.166809,395.963074
	C845.041870,342.149078 817.228210,295.220459 778.184692,254.754745
	C725.438171,200.086990 661.981445,165.369812 587.482300,150.689026
	C555.589722,144.404251 523.326172,141.984131 491.036530,144.622360
	C450.565979,147.929047 411.111694,156.357910 373.555115,172.690094
	C329.472198,191.860382 290.190430,217.831268 256.876068,252.614883
	C224.815445,286.089478 199.727600,324.128265 182.731262,367.291626
	C171.203995,396.566010 164.236786,426.968506 161.063416,458.327698
	C158.907639,479.631042 158.465836,500.892090 160.505539,522.147156
	C163.475800,553.098999 170.391602,583.218018 181.457748,612.307251
	C192.588852,641.567200 206.598480,669.300781 226.216034,693.903687
	C232.250458,701.471680 238.892441,708.504395 247.508469,713.300842
	C248.630829,713.925598 249.731155,715.082214 251.076492,713.836426
	C252.076157,712.910767 251.939438,711.727783 251.383759,710.610291
	C248.204681,704.216431 244.958771,698.117493 238.228821,694.312561
	C230.912796,690.176208 227.945679,679.757507 230.905624,671.940002
	C232.272583,668.329773 234.842636,666.451050 238.642822,667.176147
	C242.974152,668.002563 246.492111,666.978210 249.549377,663.859619
	C251.243988,662.131042 253.374863,661.546387 256.200409,661.834778
	C255.624756,662.961548 255.290756,663.700378 254.884735,664.397217
	C248.719818,674.978821 251.270813,684.854858 261.358429,692.057739
	C271.964752,699.630920 283.084320,704.891907 296.554199,703.076721
	C298.188477,702.856445 299.885071,703.021729 301.548065,703.104248
	C309.992645,703.523315 316.601288,699.907715 322.315186,693.999817
	C327.298401,688.847412 332.865540,684.328430 338.556549,679.979248
	C340.930176,678.165405 343.861206,676.951477 346.467712,678.630005
	C350.908508,681.489685 356.791656,681.698975 360.519775,684.737549
	C369.014954,691.661499 378.207184,694.333801 388.895294,693.947693
	C392.992554,693.799683 394.496124,696.488159 392.299133,700.399780
	C390.195526,704.145325 391.410156,706.711548 395.077942,708.492126
	C397.639130,709.735596 400.349182,711.014954 401.710663,713.606384
	C404.360962,718.650757 408.737885,719.699036 413.860138,719.684448
	C428.856995,719.641724 443.855530,719.822632 458.850708,719.662842
	C473.640228,719.505310 488.507172,720.854614 503.153015,717.283447
	C505.964233,716.597961 509.258545,716.728394 512.079895,717.454407
	C523.371887,720.359924 534.274475,717.200623 545.195068,715.497009
	C552.775757,714.314392 557.270996,709.764954 556.889832,704.530518
	C556.418945,698.062134 558.569824,692.459778 560.987000,686.748535
	C563.126526,681.693420 565.997742,676.310547 564.550781,670.914551
	C562.742920,664.172791 564.148499,657.659790 564.225830,651.098877
	C564.338806,641.500793 572.858826,637.093628 581.169983,641.835510
	C583.763306,643.315125 586.533447,644.599487 588.535767,646.927917
	C591.243225,650.076416 594.651001,651.368469 598.755127,651.101379
	C602.266357,650.872803 605.249817,651.819763 607.575562,654.745605
	C609.308716,656.926025 611.836243,657.624207 614.641418,657.925598
	C623.045959,658.828735 631.347473,658.747009 639.846558,658.371521
	C662.967224,657.349915 686.155273,657.880005 709.315918,657.704773
	C712.740662,657.678894 714.177612,659.073914 714.089233,662.446350
	C713.888489,670.106445 713.859558,677.771423 713.618164,685.429932
	C713.455566,690.587036 712.753906,695.764404 715.343384,700.600708
	C716.277771,702.345825 715.911804,703.816284 714.212097,704.887451
	C709.700623,707.730408 710.476868,712.137207 711.466980,716.095337
	C712.536987,720.372742 716.636108,719.631592 719.853821,719.642700
	C732.663452,719.686707 745.485901,719.907166 758.279846,719.428833
	C769.363708,719.014465 780.686646,718.796387 789.863647,710.910461
	C796.321655,705.360901 802.439941,699.451782 807.825684,692.875183
	C826.252258,670.374329 840.021606,645.172974 850.887756,617.453003
M464.321655,739.250854
	C418.161102,739.258667 371.999969,739.134888 325.840302,739.339905
	C307.690399,739.420532 289.536072,738.894897 271.379639,740.111633
	C259.317596,740.919983 247.312622,739.847290 236.626862,733.237061
	C229.252258,728.675171 222.190445,723.672913 216.446732,717.031616
	C215.340393,715.752380 214.554459,713.750366 211.732147,714.187012
	C210.095551,727.443115 213.036163,740.889954 210.567657,754.217224
	C208.106949,767.502502 203.171722,780.123596 199.693695,794.110291
	C201.755081,793.242554 202.694885,792.940430 203.545013,792.474731
	C212.599731,787.514648 221.672089,782.585205 230.668854,777.521606
	C234.268356,775.495728 237.985443,774.717102 242.121628,774.720337
	C311.613495,774.775330 381.105591,774.689209 450.597260,774.817688
	C455.519989,774.826782 457.973419,773.874268 459.022430,768.487854
	C460.557251,760.606934 464.277161,753.446350 469.259430,747.017578
	C470.749329,745.095215 472.676544,743.327454 472.885193,740.552002
	C470.594727,738.445801 467.790161,739.596558 464.321655,739.250854
M705.500000,739.260925
	C656.999512,739.260925 608.499023,739.260925 559.981323,739.260925
	C559.966797,742.585693 561.545044,743.737549 562.672119,745.127197
	C568.636475,752.480713 573.246887,760.558533 574.854431,769.971436
	C575.497925,773.739502 577.105225,774.804199 580.770203,774.798767
	C644.927856,774.703613 709.085754,774.764221 773.243469,774.677246
	C783.884460,774.662842 793.550354,771.286072 801.944702,764.639465
	C818.604675,751.447998 822.841797,733.585876 820.632324,712.983948
	C818.119080,714.941833 816.220581,717.441528 814.070190,719.701477
	C800.992432,733.445374 785.077759,740.961670 765.964233,739.931702
	C746.136536,738.863342 726.319214,739.547546 705.500000,739.260925
M487.462616,759.974792
	C486.396881,761.662781 485.247864,763.304443 484.278412,765.045959
	C475.637756,780.567871 477.863129,797.829041 490.045502,810.048584
	C501.289429,821.326782 520.568054,824.015503 534.993530,816.317261
	C547.973633,809.390259 556.022827,794.796692 554.592102,780.783936
	C552.991333,765.104675 542.259827,751.589478 527.919067,747.192200
	C513.509094,742.773621 497.759735,747.571594 487.462616,759.974792
M625.058655,685.005737
	C622.495422,684.180969 618.506042,684.310364 618.890747,680.616211
	C619.382141,675.897705 616.886169,670.979736 619.890869,666.436951
	C620.805054,665.054810 620.136963,663.474792 618.589966,663.376892
	C614.758667,663.134460 610.946838,661.355469 606.579712,662.744080
	C608.917786,668.044983 608.300781,671.395081 602.167175,672.948914
	C598.540344,673.867737 598.118408,678.803833 601.557983,680.295227
	C608.231323,683.188721 609.288391,686.339172 606.770569,693.507996
	C604.994385,698.565247 603.487549,700.129456 598.904053,699.083801
	C591.160217,697.317322 587.324890,703.638000 582.088806,707.020264
	C581.432556,707.444153 581.222290,708.778076 581.073608,709.732117
	C580.130920,715.780334 583.562622,719.510071 591.167603,719.545959
	C624.654907,719.704041 658.143372,719.628662 691.631348,719.576355
	C693.549011,719.573364 696.091980,719.902527 697.003296,717.824402
	C698.050476,715.436340 695.884705,714.000610 694.326172,712.467407
	C689.857849,708.071777 689.546021,705.286438 692.720398,700.040527
	C696.827148,693.253967 692.980591,686.160583 684.861877,686.286133
	C665.203552,686.589905 645.582214,685.620850 625.058655,685.005737
M519.375000,844.194031
	C509.857849,844.546692 500.918488,842.266052 492.279083,838.423279
	C488.091614,836.560730 484.806030,837.841309 483.654907,842.043457
	C481.151855,851.180603 478.747864,860.357117 476.733734,869.611206
	C475.575531,874.932678 477.457428,877.538940 482.116089,877.566406
	C506.434540,877.709778 530.754089,877.664246 555.073059,877.730286
	C558.337402,877.739197 559.100037,876.366455 558.261475,873.343079
	C556.038208,865.327515 554.042603,857.248779 551.819580,849.233093
	C550.719421,845.266174 550.384766,841.061401 548.367981,837.059448
	C539.009583,839.868286 530.064514,843.697449 519.375000,844.194031
M316.592743,704.803589
	C313.430786,707.290710 314.868347,708.977966 317.680237,710.109497
	C319.987823,711.037964 322.239471,710.060059 324.356598,709.143982
	C326.210663,708.341675 327.168884,706.812622 326.802856,704.761292
	C326.406952,702.542419 324.907043,701.404846 322.716248,701.074036
	C319.965546,700.658691 318.469513,702.387817 316.592743,704.803589
M302.784912,706.986389
	C301.183044,707.222961 299.459595,707.237305 298.670776,709.377686
	C300.107483,712.224121 302.683441,713.394531 305.747864,713.424011
	C307.294495,713.438965 307.892853,712.035522 307.866821,710.602478
	C307.815948,707.805969 305.906982,707.106201 302.784912,706.986389
z" />
	<path fill="#000000" opacity="1.000000" stroke="none"
		d="
M219.371490,899.342651
	C213.565277,903.813965 210.262299,904.251099 205.512238,901.413208
	C201.508804,899.021362 199.119217,893.835022 199.805176,889.026611
	C200.524323,883.985596 203.893463,880.225037 209.081177,879.223267
	C213.879272,878.296692 218.025085,879.864380 220.884735,883.846680
	C224.088120,888.307556 223.529114,893.437134 219.371490,899.342651
z" />
	<path fill="#000000" opacity="1.000000" stroke="none"
		d="
M287.298645,898.685059
	C282.901306,892.724915 282.786041,886.841370 286.716095,882.541809
	C290.550690,878.346863 297.317108,877.552856 302.186127,880.726624
	C307.735901,884.344116 308.945068,891.766846 304.893097,897.344360
	C300.709167,903.103333 293.258392,903.797119 287.298645,898.685059
z" />
	<path fill="#000000" opacity="1.000000" stroke="none"
		d="
M830.031982,881.966187
	C834.804443,888.755493 834.273315,896.689148 829.086365,900.609131
	C824.655579,903.957581 819.470581,903.834229 815.351135,900.282288
	C810.799683,896.357727 809.549927,889.497131 812.456116,884.389587
	C815.025452,879.874268 820.218689,877.819153 825.339417,879.468994
	C826.887390,879.967773 828.282532,880.940918 830.031982,881.966187
z" />
	<path fill="#000000" opacity="1.000000" stroke="none"
		d="
M752.627686,898.617554
	C748.140930,902.621521 743.461060,903.115417 738.551025,900.586609
	C735.200134,898.860840 732.518616,892.425476 733.267639,888.452026
	C734.213257,883.435974 736.986755,879.965942 742.098816,878.851746
	C746.969421,877.790161 752.026611,880.053772 754.577026,884.167053
	C757.327576,888.602905 756.785278,893.220703 752.627686,898.617554
z" />
	<path fill="#000000" opacity="1.000000" stroke="none"
		d="
M421.903412,608.920105
	C437.097809,591.199097 452.083405,573.764648 467.044708,556.309387
	C473.520172,548.754456 478.274902,548.030823 486.417633,553.890259
	C495.739960,560.598511 504.709625,567.798645 514.599304,574.117798
	C517.534058,572.385437 519.429626,569.614380 521.574524,567.146179
	C539.931580,546.021423 558.202515,524.821716 576.604370,503.736206
	C584.341187,494.871094 590.978394,494.208893 600.580383,500.980255
	C605.890015,504.724609 611.226685,508.439056 616.393188,512.374390
	C618.905396,514.288025 620.554016,514.161255 622.613464,511.684326
	C632.305176,500.028381 642.089600,488.448181 651.968262,476.950287
	C654.233032,474.314301 654.900940,471.627686 654.439453,468.239227
	C652.004272,450.358337 665.788330,433.132355 683.482300,431.772217
	C701.689941,430.372650 717.374878,445.230896 717.226868,463.967957
	C717.200500,467.303802 718.045959,469.596954 720.841309,471.539093
	C727.680420,476.290955 734.468079,481.136444 741.026550,486.263977
	C743.950562,488.550049 745.957703,486.821442 748.261963,485.683136
	C762.052307,478.870422 777.872314,482.781555 786.889771,495.255768
	C794.447815,505.711151 794.427002,520.468262 786.838806,531.361450
	C779.299255,542.184875 766.315002,547.384949 754.617188,544.265930
	C741.273193,540.708008 731.379883,529.310242 730.305908,516.258545
	C730.292236,516.092529 730.211243,515.907532 730.259644,515.764526
	C733.315979,506.735992 727.146973,502.887482 720.918335,499.033539
	C719.363647,498.071594 717.820557,497.041687 716.449646,495.840393
	C710.340271,490.487061 704.731323,486.857635 696.044800,492.507690
	C689.785828,496.578735 681.694763,495.125305 674.807739,492.007690
	C671.338196,490.437134 669.364624,491.114960 667.119690,493.707794
	C656.762878,505.669464 646.175293,517.433777 635.940491,529.497864
	C624.833069,542.590454 621.632507,543.154663 607.850830,533.381714
	C603.366638,530.201843 598.672363,527.296021 594.364380,523.897034
	C591.203430,521.403015 589.303406,522.260254 586.945557,524.979065
	C572.430481,541.715637 557.795715,558.348450 543.194336,575.010071
	C536.827942,582.274658 530.564758,589.634583 524.034851,596.749512
	C518.520081,602.758423 514.461609,603.006104 507.978821,598.161560
	C499.840302,592.079590 491.701721,585.994812 483.680664,579.760071
	C480.485260,577.276306 478.133575,577.153687 475.290527,580.469543
	C459.244720,599.184326 443.013367,617.739746 426.892975,636.390747
	C420.249359,644.077271 413.784882,651.918884 407.129181,659.594666
	C400.152771,667.640442 395.555389,668.219727 386.918396,662.072815
	C378.775482,656.277588 370.651031,650.442993 362.758118,644.316895
	C359.703735,641.946289 357.604645,642.037170 354.557617,644.321777
	C337.369110,657.208984 320.013153,669.872742 302.745605,682.654907
	C299.572418,685.003845 296.266266,686.702698 292.164886,686.315796
	C287.078674,685.836060 282.806335,682.555481 281.321594,677.977905
	C279.644531,672.807434 282.645142,669.797302 286.301727,667.110901
	C303.351288,654.585754 320.431000,642.101624 337.456940,629.544495
	C341.074738,626.876282 344.525360,623.979919 348.031250,621.161682
	C356.701447,614.192139 360.772583,614.118225 369.763367,620.866577
	C376.292786,625.767395 382.789764,630.711548 389.316071,635.616577
	C391.033203,636.907104 392.805695,638.123901 395.021057,639.709839
	C404.003601,629.431030 412.844177,619.314697 421.903412,608.920105
M769.786194,519.171875
	C772.465820,514.813171 772.456482,510.565521 768.672546,506.934021
	C765.366028,503.760742 761.263245,503.147369 757.130798,505.111450
	C752.495178,507.314606 751.662842,511.499634 752.342896,516.108337
	C752.884033,519.775696 755.260193,522.004272 758.674561,523.092712
	C762.960022,524.458740 766.491760,523.100220 769.786194,519.171875
M688.838684,472.626892
	C693.729980,471.091187 696.374817,467.947021 695.831726,462.641663
	C695.387268,458.299957 691.756714,454.722748 687.348755,454.142090
	C682.964539,453.564545 678.885071,456.007050 677.046326,460.310516
	C674.112244,467.177521 679.056274,472.757202 688.838684,472.626892
z" />
	<path fill="#000000" opacity="1.000000" stroke="none"
		d="
M555.072815,263.880737
	C600.129517,300.599945 599.374146,367.965485 553.627991,403.268677
	C539.289490,414.334045 522.588135,419.118378 504.628784,419.250183
	C479.311249,419.436005 453.990814,419.363525 428.672791,419.208954
	C424.580353,419.183990 421.231323,420.179565 418.184021,422.841064
	C402.507568,436.532654 386.787537,450.174286 371.079803,463.830048
	C367.562744,466.887634 364.045898,469.945709 360.507385,472.978333
	C356.755615,476.193695 352.621735,478.122955 347.685150,475.945374
	C342.540741,473.676117 341.090454,468.994110 341.022095,464.004364
	C340.901184,455.183014 341.246368,446.355774 341.356018,437.530487
	C341.457428,429.371643 341.454590,421.211212 341.601868,413.053314
	C341.663849,409.621094 339.700714,407.669952 337.240631,405.707123
	C320.858398,392.636169 309.186707,376.226685 304.343994,355.740723
	C297.126648,325.209351 303.984680,297.919739 325.459778,274.816101
	C343.630096,255.267822 366.152374,245.471283 393.023285,245.604858
	C429.501740,245.786179 465.981659,245.690277 502.460968,245.669601
	C521.985657,245.658524 539.409851,251.666199 555.072815,263.880737
M412.960571,397.897217
	C415.216858,396.462860 417.752686,396.700073 420.241791,396.696747
	C448.062378,396.659637 475.882965,396.615326 503.703552,396.609131
	C508.885712,396.607971 514.007080,396.085480 519.062927,395.023315
	C544.674622,389.642609 570.162476,361.893402 565.771667,325.250061
	C561.923828,293.137970 534.257507,268.420380 501.958191,268.359558
	C465.308777,268.290588 428.659119,268.360626 392.009644,268.304077
	C383.105072,268.290314 374.545410,269.659973 366.160980,272.826416
	C333.843323,285.031372 317.031738,319.443268 326.756836,352.979187
	C332.033478,371.175201 343.664734,384.495972 360.082001,393.609070
	C363.994019,395.780579 365.398468,398.455566 365.293823,402.799164
	C365.061218,412.455536 365.199707,422.122162 365.288025,431.783691
	C365.303528,433.480225 364.597809,435.476562 367.044189,437.239197
	C382.068268,424.312164 397.175934,411.313232 412.960571,397.897217
z" />
	<path fill="#000000" opacity="1.000000" stroke="none"
		d="
M668.070190,287.768097
	C672.047607,291.366119 673.505737,295.508362 673.449219,300.505676
	C673.374023,307.160095 674.064331,313.826721 673.909851,320.476105
	C673.217529,350.271240 673.395325,380.069336 673.330994,409.867035
	C673.318604,415.611969 669.864624,419.625000 664.646729,420.222443
	C659.446716,420.817841 655.524109,417.635620 654.477356,411.667938
	C654.020691,409.064819 653.905457,406.374847 653.899963,403.723724
	C653.837830,373.735199 653.833679,343.746552 653.797791,313.757935
	C653.789185,306.541748 653.434631,306.246765 646.085388,306.298828
	C641.436829,306.331757 636.787781,306.294647 632.138916,306.281128
	C625.482971,306.261780 625.334961,306.369202 625.326660,312.886444
	C625.300720,333.378723 625.298523,353.871002 625.294556,374.363281
	C625.288818,404.018768 625.291626,433.674255 625.282288,463.329742
	C625.281738,464.994171 625.366394,466.681885 625.132019,468.318756
	C624.338989,473.856140 620.577087,477.329987 615.511414,477.367737
	C610.629395,477.404144 607.228149,474.301056 606.225159,468.698975
	C605.904785,466.909271 605.845154,465.054108 605.843567,463.228760
	C605.792786,403.585419 605.761719,343.942047 605.738525,284.298706
	C605.737549,281.806946 605.640747,279.312500 606.408569,276.867828
	C607.856201,272.258972 611.563721,269.506287 616.069214,269.816193
	C620.917236,270.149689 625.232239,273.911041 625.184814,278.687103
	C625.141357,283.059235 627.028137,284.032501 630.889832,284.044098
	C639.713623,284.070618 648.535889,284.454468 657.360107,284.615540
	C661.107300,284.683990 664.640076,285.339111 668.070190,287.768097
z" />
	<path fill="#000000" opacity="1.000000" stroke="none"
		d="
M305.539276,527.175415
	C305.246124,516.640625 302.845001,514.466614 293.340820,515.354370
	C290.518219,515.618103 289.026611,516.886536 288.811646,519.627808
	C288.603729,522.279175 288.391113,524.940857 288.401947,527.597046
	C288.544464,562.571472 288.736816,597.545715 288.878052,632.520142
	C288.889465,635.344910 288.681946,638.175903 288.464203,640.995300
	C287.932831,647.874207 284.593842,651.864563 279.308319,652.046570
	C274.312378,652.218628 269.340515,646.888916 268.801483,640.747498
	C268.714355,639.754517 268.746216,638.749939 268.746521,637.750732
	C268.759674,595.607422 268.761719,553.464111 268.799988,511.320831
	C268.810364,499.880920 274.426361,494.152832 285.894684,493.696777
	C296.122314,493.290100 306.191925,493.704315 315.624512,498.441437
	C322.070892,501.678894 325.277863,506.637939 325.292236,513.956665
	C325.339386,537.938721 325.604736,561.920288 325.695923,585.902405
	C325.721252,592.555847 325.403656,599.210083 325.303192,605.864868
	C325.261353,608.634766 324.343933,611.109680 322.890228,613.371948
	C320.826385,616.583679 317.658875,618.083130 313.968445,617.886414
	C310.257782,617.688721 308.075928,615.202026 306.671906,611.898621
	C305.658966,609.515320 305.648346,607.042725 305.645630,604.539673
	C305.617859,578.887207 305.581726,553.234741 305.539276,527.175415
z" />
	<path fill="#000000" opacity="1.000000" stroke="none"
		d="
M355.970276,538.000000
	C355.940674,552.979187 355.926636,567.458496 355.866669,581.937561
	C355.857727,584.096680 355.769897,586.273254 355.482178,588.409973
	C354.653229,594.566589 349.851685,599.124634 344.681915,598.807922
	C339.426300,598.486023 335.470367,593.372253 335.535706,586.986511
	C335.668610,573.997375 335.853607,561.008545 335.918762,548.019104
	C335.986420,534.527710 335.876526,521.035339 335.959076,507.544128
	C336.029358,496.056854 340.186157,491.971832 351.756561,491.923462
	C360.584045,491.886566 369.412598,491.944305 378.239624,492.049408
	C382.081146,492.095123 385.923676,492.388580 389.307648,494.529816
	C393.048462,496.896851 394.371429,500.384399 394.344391,504.727844
	C394.252167,519.551575 394.269012,534.376404 394.337402,549.200378
	C394.352417,552.458862 393.535065,555.907043 395.886597,558.836548
	C396.156616,559.172913 396.287537,559.851807 396.146484,560.253662
	C392.215759,571.450989 395.139923,583.007263 394.366821,594.368591
	C393.859619,601.822632 389.715393,606.121216 383.180878,605.301819
	C378.127808,604.668213 374.839325,600.537231 374.761047,594.018005
	C374.625397,582.720337 374.739380,571.419617 374.767426,560.120178
	C374.800934,546.628479 374.760529,533.135498 374.956573,519.645996
	C375.014465,515.662109 373.732727,513.836060 369.550476,513.910889
	C353.256317,514.202332 356.310730,512.644226 356.024963,527.006531
	C355.955353,530.503296 355.986267,534.002136 355.970276,538.000000
z" />
	<path fill="#000000" opacity="1.000000" stroke="none"
		d="
M729.674438,409.999939
	C729.672607,395.171265 729.546936,380.840881 729.747437,366.515076
	C729.805237,362.386444 728.469299,360.723755 724.321716,361.047943
	C721.174377,361.293915 717.989014,361.240875 714.830200,361.101257
	C711.328247,360.946503 710.215088,362.532898 710.241272,365.905121
	C710.344788,379.233124 710.258667,392.562622 710.234192,405.891571
	C710.231445,407.390289 710.283203,408.900757 710.122131,410.385437
	C709.523987,415.897644 705.803467,419.729553 700.916565,419.972687
	C696.080383,420.213318 692.150085,416.638977 691.271606,411.006134
	C690.965759,409.044434 690.955078,407.023895 690.950378,405.029938
	C690.888489,378.546356 690.848816,352.062775 690.815979,325.579163
	C690.814087,324.081787 690.800720,322.568756 690.994629,321.089539
	C691.786133,315.052948 695.388245,311.619598 700.703857,311.727173
	C706.102356,311.836426 710.005981,315.888733 710.249023,321.879456
	C710.411133,325.872101 710.518616,329.888916 710.265015,333.870361
	C710.006958,337.920044 711.840332,339.106659 715.570557,339.063293
	C721.561829,338.993652 727.590027,338.878906 733.542847,339.429382
	C744.324829,340.426361 748.917786,345.537140 749.032166,356.369171
	C749.165771,369.029999 749.038696,381.693542 749.027771,394.355927
	C749.015076,409.184204 749.032043,424.012634 748.968994,438.840668
	C748.958435,441.327087 748.769470,443.837646 748.381836,446.292633
	C747.439087,452.263000 743.320007,455.669159 737.791565,455.253662
	C732.917603,454.887421 729.838806,451.144958 729.746460,444.988373
	C729.611511,435.993164 729.688782,426.994781 729.677002,417.997742
	C729.673706,415.498474 729.675293,412.999207 729.674438,409.999939
z" />
	<path fill="#000000" opacity="1.000000" stroke="none"
		d="
M446.494354,441.947266
	C449.282288,437.602478 452.971039,436.182495 457.441803,437.606750
	C462.029816,439.068329 464.412323,442.229279 464.395203,447.313538
	C464.301636,475.092102 464.372833,502.871185 464.291199,530.649841
	C464.272125,537.137939 460.122803,541.510925 454.424683,541.531372
	C449.108429,541.550415 445.730408,537.673767 445.663177,531.000183
	C445.401825,505.056915 445.214905,479.112793 445.066711,453.168640
	C445.045868,449.521271 445.312714,445.862335 446.494354,441.947266
z" />
	<path fill="#000000" opacity="1.000000" stroke="none"
		d="
M505.799438,518.984680
	C505.761475,497.530792 505.750275,476.573669 505.711334,455.616608
	C505.706665,453.099701 505.829529,450.652435 507.014038,448.339813
	C509.002563,444.457428 512.248352,442.723663 516.430115,443.296967
	C520.778564,443.893158 523.758728,446.379944 524.391724,450.964935
	C524.731873,453.428345 524.952881,455.929474 524.960083,458.414337
	C525.026123,481.200958 525.047668,503.987793 525.050720,526.774536
	C525.051880,535.738525 521.710571,540.386536 515.416931,540.333191
	C509.450073,540.282593 506.063416,535.495056 505.950195,526.964478
	C505.917053,524.470032 505.862579,521.975769 505.799438,518.984680
z" />
	<path fill="#000000" opacity="1.000000" stroke="none"
		d="
M427.399841,569.891235
	C425.625214,575.248718 421.988647,577.633728 416.976959,577.022461
	C412.000763,576.415466 410.555573,572.709900 409.150513,568.084412
	C407.227234,561.752991 408.947540,555.803833 408.924377,549.696167
	C408.854980,531.388184 408.818665,513.080017 408.719788,494.772247
	C408.701233,491.337036 409.118286,488.101196 411.729767,485.583008
	C416.283203,481.192169 423.540680,482.594299 426.352142,488.401947
	C427.532745,490.840729 427.963593,493.448334 427.967987,496.148895
	C428.004822,518.784058 428.067993,541.419189 428.072571,564.054321
	C428.072937,565.863892 427.694031,567.673645 427.399841,569.891235
z" />
	<path fill="#000000" opacity="1.000000" stroke="none"
		d="
M771.096924,436.275635
	C764.673950,434.692719 761.926086,431.705597 761.851990,425.914490
	C761.709229,414.763794 761.617859,403.606384 761.850708,392.459015
	C762.012390,384.717377 765.368347,381.377350 771.828064,381.617218
	C777.209167,381.817108 780.850830,385.188507 781.305237,390.590912
	C782.339722,402.888947 782.118286,415.197571 781.301758,427.494049
	C780.971985,432.460724 777.662109,435.284210 771.096924,436.275635
z" />
	<path fill="#000000" opacity="1.000000" stroke="none"
		d="
M586.137939,424.048950
	C587.938293,426.673828 588.362183,429.227142 588.347107,431.964722
	C588.286499,442.947296 588.363342,453.930725 588.282410,464.913055
	C588.232056,471.739532 584.383057,476.311981 578.964355,476.261688
	C573.237000,476.208496 569.662109,471.977386 569.634766,464.976288
	C569.590515,453.660889 569.679016,442.345001 569.649902,431.029449
	C569.639771,427.090820 570.629822,423.611206 574.458679,421.922058
	C578.520813,420.129944 582.566528,420.081421 586.137939,424.048950
z" />
	<path fill="#000000" opacity="1.000000" stroke="none"
		d="
M541.981262,468.001221
	C541.977112,462.846222 541.827393,458.183960 542.026489,453.536682
	C542.266052,447.943848 545.599243,444.197876 550.232239,443.882874
	C555.202209,443.544952 559.502319,446.751312 560.742371,451.938385
	C561.799377,456.359558 561.484314,460.933136 561.081787,465.346436
	C560.414978,472.655823 560.462158,479.952698 560.327209,487.261719
	C560.219910,493.074982 556.970459,496.870117 551.984619,497.254089
	C547.007874,497.637390 543.424194,494.378204 542.524353,488.423340
	C541.525452,481.813385 542.245300,475.140320 541.981262,468.001221
z" />
	<path fill="#000000" opacity="1.000000" stroke="none"
		d="
M675.229187,623.205811
	C683.841187,617.129578 692.528687,613.199158 702.745789,618.343750
	C703.190735,618.567810 703.647217,618.771851 704.108337,618.960449
	C714.410217,623.174438 714.995728,624.246399 714.056519,635.503601
	C713.807251,638.491455 712.712708,640.166138 709.529419,640.133850
	C703.547058,640.073059 697.563721,640.104370 691.581299,640.047546
	C689.138672,640.024353 687.176514,639.238647 685.722961,636.978210
	C683.722107,633.866699 679.935181,633.267334 676.994934,631.461548
	C673.718567,629.449280 671.825867,627.100342 675.229187,623.205811
z" />
	<path fill="#000000" opacity="1.000000" stroke="none"
		d="
M480.667358,506.950836
	C480.677338,502.811493 480.551147,499.154327 480.729828,495.512177
	C481.003448,489.934662 484.567444,486.666046 490.054871,486.697388
	C495.592560,486.728973 499.136597,489.997925 499.278381,495.578308
	C499.430023,501.547424 499.366180,507.524780 499.271606,513.496582
	C499.186035,518.902527 495.548340,522.994995 490.735718,523.325256
	C485.330688,523.696228 481.544342,520.370789 480.837891,514.400635
	C480.566345,512.105774 480.712128,509.761505 480.667358,506.950836
z" />
	<path fill="#000000" opacity="1.000000" stroke="none"
		d="
M236.822968,587.454590
	C244.477066,592.740417 245.204102,599.444214 239.287125,605.984619
	C237.992508,607.415649 237.046768,609.162231 235.935791,610.770081
	C232.059586,607.290344 227.750275,596.904175 227.390198,589.907288
	C230.706757,590.199158 233.574509,588.752991 236.822968,587.454590
z" />
	<path fill="#000000" opacity="1.000000" stroke="none"
		d="
M454.664246,318.853760
	C461.407135,322.602936 464.700958,327.978638 464.292023,335.370239
	C463.958710,341.395874 460.647430,345.645294 455.563629,348.434601
	C449.638245,351.685699 442.525055,350.164795 437.898132,345.006836
	C433.022034,339.571106 432.307495,331.154602 436.206268,325.077942
	C440.437012,318.483765 446.389893,316.381958 454.664246,318.853760
z" />
	<path fill="#000000" opacity="1.000000" stroke="none"
		d="
M514.815918,341.510529
	C510.907410,346.963074 506.155640,350.775024 499.584686,349.856567
	C493.491028,349.004822 488.896179,345.331451 486.764099,339.269470
	C484.487244,332.795837 486.868988,325.023438 492.254211,320.868591
	C497.498566,316.822449 503.772369,316.662720 509.439514,320.431122
	C515.622192,324.542328 518.017090,331.617371 515.820679,339.363495
	C515.640991,339.997101 515.286194,340.581055 514.815918,341.510529
z" />
	<path fill="#000000" opacity="1.000000" stroke="none"
		d="
M391.364044,318.891174
	C401.117462,316.061920 410.065582,321.463959 412.089203,331.037689
	C413.906738,339.636475 407.443390,348.654602 398.515350,349.976837
	C392.826111,350.819458 385.794281,346.691681 383.144714,340.954102
	C379.913544,333.957031 381.494843,326.245575 387.228912,321.462769
	C388.367126,320.513367 389.731323,319.834900 391.364044,318.891174
z" />
</svg>
